<?xml version="1.0" encoding="utf-8"?>
<!-- Generator: Adobe Illustrator 23.0.1, SVG Export Plug-In . SVG Version: 6.00 Build 0)  -->
<svg version="1.1" id="Layer_1" xmlns="http://www.w3.org/2000/svg" xmlns:xlink="http://www.w3.org/1999/xlink" x="0px" y="0px"
	 viewBox="0 0 144 144" style="enable-background:new 0 0 144 144;" xml:space="preserve">
<style type="text/css">
	.st0{fill:none;stroke:#1D2B3C;stroke-width:4.115;stroke-miterlimit:10;}
	.st1{fill:none;stroke:#1D2B3C;stroke-width:2.7434;stroke-miterlimit:10;}
	.st2{fill:#EB4849;}
</style>
<g>
	<circle class="st0" cx="61.835" cy="72" r="49.824"/>
	<path class="st1" d="M36.117,114.68c0,0,2.133-1.653,9.327-2.012s7.555-0.36,9.713,0s5.036,1.259,9.353-0.27
		c4.317-1.529,10.433-0.866,12.591,1.141c2.158,2.007,17.955-4.411,17.955-4.411"/>
	<path class="st1" d="M41.487,62.663c-2.518-3.597-1.439-6.116,4.317-6.116s10.792-1.439,10.792-2.518
		c0-1.079,9.038-7.914,5.238-12.231s-3.799-4.317-3.799-4.317s11.512,3.238,0,0c-4.529-1.274-8.486,1.511-13.058,1.65
		c-7.047,0.215-13.923-1.65-13.923-1.65s0,6.835-2.878,6.835s-6.475,2.158-6.116,5.036c0.36,2.878,7.555,6.116,7.555,6.116
		l6.501,7.195c0,0-0.745,8.241,3.212,9.337s16.243,5.053,3.265,30.595c14.002,1.799,25.154-17.627,25.154-22.304
		c0-4.677,1.073-5.07-2.162-8.291c-3.234-3.221-17.478-3.221-20.609-4.66C41.847,65.901,41.487,62.663,41.487,62.663z"/>
	<path class="st1" d="M95.056,37.196c0,0-7.968,2.861-10.829,1.907s-11.445-2.79-11.127,0.195
		c0.318,2.984,5.086,13.157,2.861,13.157c-2.225,0-6.358-2.543-6.358-2.543s-4.219,2.225-4.017,4.133
		c0.202,1.907,5.606,4.133,9.421,4.451s13.352-3.179,14.306,0s-1.272,9.219-3.497,9.219c-2.225,0-9.219,9.537-9.219,9.537
		s15.895,10.173,10.491,13.352c-5.404,3.179-6.77,12.108-6.77,12.108s17.61,5.037,21.422-0.879"/>
	<path class="st1" d="M110.33,60.569c0,0-8.653-2.427-9.768,0c-1.116,2.427,0,6.889,0,6.889s8.569-4.176,9.768,1.919"/>
	<path class="st2" d="M122.349,86.652C-20.504,75.938,4.662,49.815,4.662,49.815c-20.537,7.312,28.454,53.901,114.121,52.286
		l-2.859,9.803L144,98.953L127.27,74.35L122.349,86.652z"/>
</g>
</svg>
