<?xml version="1.0" encoding="utf-8"?>
<!-- Generator: Adobe Illustrator 23.0.1, SVG Export Plug-In . SVG Version: 6.00 Build 0)  -->
<svg version="1.1" id="Layer_1" xmlns="http://www.w3.org/2000/svg" xmlns:xlink="http://www.w3.org/1999/xlink" x="0px" y="0px"
	 viewBox="0 0 144 144" style="enable-background:new 0 0 144 144;" xml:space="preserve">
<style type="text/css">
	.st0{fill:#1D2B3C;}
	.st1{fill:none;stroke:#1D2B3C;stroke-width:3.2725;stroke-miterlimit:10;}
	.st2{fill:none;stroke:#1D2B3C;stroke-width:4.9088;stroke-miterlimit:10;}
	.st3{fill:#F6EAD5;stroke:#1D2B3C;stroke-width:1.8181;stroke-miterlimit:10;}
	.st4{fill:none;stroke:#F6EAD5;stroke-width:1.8181;stroke-miterlimit:10;}
</style>
<g>
	
		<rect x="20.974" y="42.336" transform="matrix(0.7071 -0.7071 0.7071 0.7071 -24.5814 32.6199)" class="st0" width="12.221" height="7.293"/>
	<path class="st1" d="M85.411,77.198"/>
	<rect x="9.947" y="13.95" class="st1" width="124.107" height="78.157"/>
	<rect x="3.741" y="6.972" class="st2" width="136.518" height="98.502"/>
	<rect x="9.947" y="13.95" class="st0" width="124.107" height="5.724"/>
	<rect x="109.176" y="31.663" class="st1" width="19.013" height="52.053"/>
	<rect x="104.062" y="22.807" class="st0" width="19.013" height="52.053"/>
	<path class="st1" d="M93.234,37.183c-6.412-3.83-12.282,22.91-37.229,34.732"/>
	<rect x="93.234" y="33.913" class="st3" width="5.797" height="5.797"/>
	<path class="st0" d="M53.018,72.004c-2.234-2.809-17.073-6.044-17.073-6.044l-8.636-13.179l6.782-6.705l13.079,8.787
		C47.17,54.863,50.784,69.195,53.018,72.004z"/>
	<line class="st4" x1="41.785" y1="60.682" x2="53.018" y2="71.915"/>
	<rect x="50.209" y="69.106" class="st3" width="5.797" height="5.797"/>
	<rect x="63.479" y="105.474" class="st1" width="17.042" height="17.042"/>
	<polygon class="st1" points="106.574,134.397 37.426,134.397 49.873,115.325 94.127,115.325 	"/>
</g>
</svg>
