<?xml version="1.0" encoding="utf-8"?>
<!-- Generator: Adobe Illustrator 23.0.1, SVG Export Plug-In . SVG Version: 6.00 Build 0)  -->
<svg version="1.1" id="Layer_1" xmlns="http://www.w3.org/2000/svg" xmlns:xlink="http://www.w3.org/1999/xlink" x="0px" y="0px"
	 viewBox="0 0 144 144" style="enable-background:new 0 0 144 144;" xml:space="preserve">
<style type="text/css">
	.st0{fill:none;stroke:#1D2B3C;stroke-width:4.0659;stroke-miterlimit:10;}
	.st1{fill:#FFFFFF;stroke:#1D2B3C;stroke-width:4.0659;stroke-miterlimit:10;}
	.st2{fill:#FFFFFF;stroke:#1D2B3C;stroke-width:2.7106;stroke-miterlimit:10;}
	.st3{fill:#1D2B3C;}
	.st4{font-family:'Raleway-Bold';}
	.st5{font-size:21.1073px;}
</style>
<g>
	<path class="st0" d="M100.137,129.442H8.21c-2.118,0-3.835-1.717-3.835-3.835V68.115c1.893-3.616,3.855-6.14,7.159-8.328
		l88.603,4.492c2.118,0,3.835,1.717,3.835,3.835v57.492C103.973,127.725,102.255,129.442,100.137,129.442z"/>
	<path class="st1" d="M109.185,123.827H17.258c-2.118,0-3.835-1.717-3.835-3.835V62.499c0-2.118,1.717-3.835,3.835-3.835h91.927
		c2.118,0,3.835,1.717,3.835,3.835v57.492C113.021,122.11,111.303,123.827,109.185,123.827z"/>
	<path class="st2" d="M54.687,63.478c11.279-37.281,22.829-31.334,22.465-50.574c0,0,0,0,22.935,16.071
		c0.096,11.882-20.85,18.175-17.724,41.715C54.687,63.478,54.687,63.478,54.687,63.478z"/>
	<text transform="matrix(0.7632 -0.6461 0.6461 0.7632 77.4334 58.6679)" class="st3 st4 st5">$</text>
	<path class="st2" d="M53.695,77.51c3.184-22.494,35.042-20.448,36.561-46.491c12.255,19.253,0,0,17.952,29.762
		c-7.454,21.459-25.839,9.869-31.024,33.042C53.695,77.51,53.695,77.51,53.695,77.51z"/>
	<path class="st1" d="M37.477,86.896c-5.744,6.356-33.102,32.581-33.102,32.581v9.965l133.823-34.679c0,0-0.099-5.502-0.099-8.977
		c0-3.655-1.527-4.41-5.092-4.426c-19.692-0.086-79.585-0.134-83.698,0.026C46.04,81.512,41.776,82.139,37.477,86.896z"/>
	<path class="st1" d="M37.477,96.861c-5.744,6.356-33.102,32.581-33.102,32.581h102.609c0,0,28.662-30.982,31.115-33.692
		c2.453-2.709,1.966-4.41-1.599-4.426c-19.692-0.086-83.079-0.134-87.191,0.026C46.04,91.477,41.776,92.104,37.477,96.861z"/>
	<text transform="matrix(0.7632 -0.6461 0.6461 0.7632 80.9976 74.7025)" class="st3 st4 st5">$</text>
</g>
</svg>
